<svg xmlns="http://www.w3.org/2000/svg" viewBox="0 0 263.7 60.36"><defs><style>.cls-1{fill:#1c3664;}</style></defs><title>Asset 1</title><g id="Layer_2" data-name="Layer 2"><g id="Layer_1-2" data-name="Layer 1"><path class="cls-1" d="M97.31,19.64l-.25.7a136.1,136.1,0,0,1-4,13.47l-.36,1-4.08-2.54.75-.7a68.25,68.25,0,0,0,6.39-11.79L96,19Zm-7.06-8.71A47.37,47.37,0,0,1,95.4,13l.95.39L94,17.49l-.54-.86a40.73,40.73,0,0,0-4-4.1l-.75-.47.82-1.48Zm1.28-9.29A48,48,0,0,1,96.32,4l.92.43L94.76,8.28l-.57-.94a44.66,44.66,0,0,0-3.48-4.22L90,2.66l.88-1.41ZM118.18,35c-4.22-1.6-7.06-4.33-8.37-8.08-1.39,4.29-5.22,7-11.72,8.43l-1.24.43-.67-1.48,1.24-.16c4.86-1.6,8.3-4.68,9.09-8.16H99.44c-.74,0-.81,0-1.84.16V24.25a14.8,14.8,0,0,0,2.13.15h7v-.9a7.24,7.24,0,0,0,0-1l0-.28,0-.35h3.91a13.45,13.45,0,0,0-.11,1.64v.86h8.2a14.89,14.89,0,0,0,2.13-.15v1.87a13.39,13.39,0,0,0-2.13-.16H111c1.84,2.89,4.5,4.57,8.8,5.55l1.49.15-1.92,3.83ZM116.3,4.22A17.28,17.28,0,0,0,119,4.1,17,17,0,0,0,118.79,7V20.81a17.82,17.82,0,0,0,.17,2.34h-3.87l0-.39a12.93,12.93,0,0,0,.14-2v-15h-13v15a17.82,17.82,0,0,0,.17,2.34H98.63l0-.39a12.93,12.93,0,0,0,.14-2V6.52a14.29,14.29,0,0,0-.17-2.42,21.38,21.38,0,0,0,2.66.12h4.11A15.42,15.42,0,0,0,106,1.09L106,0l4.72.9-.92.86a27.39,27.39,0,0,1-2.41,2.46Zm-9,5.15-.93,0-1.31.08h-.6l-.89.15-.43-1.52h1.14a38.74,38.74,0,0,0,7.56-1.64l1-.47,1.38,2.81-1.17,0c-.78.12-2,.24-3,.31v4.34h.46a20.23,20.23,0,0,0,1.1-3.48l.14-.86,2.88,1.33-.61.63a27,27,0,0,1-2.2,2.38h.85a13.56,13.56,0,0,0,2.13-.16v1.88a13.22,13.22,0,0,0-2.13-.16h-2.09A13.58,13.58,0,0,0,114,17.53l1,.2-1.84,3.16-.64-1A14.82,14.82,0,0,1,110,16.24v2.5a16.57,16.57,0,0,0,.18,2.34h-3l0-.39a13.05,13.05,0,0,0,.15-2V17.45a19.06,19.06,0,0,1-3.38,2.89l-.67.63-.85-1.14.78-.58a12.33,12.33,0,0,0,2.66-4.18h-1.1c-.75,0-.82,0-1.85.16V13.35a11.11,11.11,0,0,0,1.89.16v-.2a12.05,12.05,0,0,0-.79-2.38l-.31-.43,1-.82.28.47c.11.08.25.2.42.35a9.33,9.33,0,0,1,1.18,1.17l.49.39-1.81,1.45h2Z"/><path class="cls-1" d="M125.89,10.85a37,37,0,0,1,4.93,2l.89.36-2.31,3.94-.46-.78a41.49,41.49,0,0,0-3.84-4l-.67-.43.78-1.45Zm5.89,8.71-.18.7a106.35,106.35,0,0,1-2.77,13.63l-.25.9-4.15-2.07.57-.67a60.5,60.5,0,0,0,5.22-12.29l.17-.79ZM127.55,1.64a47.2,47.2,0,0,1,4.62,2.26l.92.43L130.68,8l-.57-.9a48.89,48.89,0,0,0-3.3-4.06l-.64-.46L127,1.25Zm8.34,8.12-.1,1.25c.14,2,.21,3.55.21,5.08s-.07,3.16-.25,5.15l0,1.25-3.62-.86.46-1a63.89,63.89,0,0,0,1.77-9.72l-.07-1.29Zm-1.66,24c2.13-3.9,3.15-9.06,3.15-15.77V3.75a13.9,13.9,0,0,0-.17-2.34h3.94A17.83,17.83,0,0,0,141,3.75V17.3c0,7-1.73,12.29-5.64,17.17l-.71,1.06-1.24-.9Zm10.5-29a13.26,13.26,0,0,0-.18-2.34h3.91a17.34,17.34,0,0,0-.18,2.34V29a18.27,18.27,0,0,0,.18,2.34h-3.91l0-.39a12.93,12.93,0,0,0,.14-2V20.61l-2.84.9L142,20c-.11-3.2-.32-6.64-.6-9.14l-.32-1.28,1.42-.39.24,1.21c.82,2.65,1.35,4.56,2,7.1Zm7.6-1.25a13.26,13.26,0,0,0-.18-2.34h4.08a17.34,17.34,0,0,0-.18,2.34v29a18.27,18.27,0,0,0,.18,2.35h-4.08l0-.39a13.08,13.08,0,0,0,.15-2V20l-2.81,1,.07-1.6a66.87,66.87,0,0,0-.85-8.43l-.28-1.21L150,9.29l.25,1.21c.81,2.27,1.59,4.65,2.13,6.48Z"/><path class="cls-1" d="M175.75,10.31V3.4a13.3,13.3,0,0,0-.18-2.35h4.76a17.46,17.46,0,0,0-.18,2.35v6.91h8.56a15,15,0,0,0,2.13-.12V12c-.36,0-.5-.08-.68-.08l-.5,0h-9.51v8.55h7.21a15,15,0,0,0,2.13-.12v1.8c-.36,0-.5-.08-.68-.08l-.49,0h-8.17V32.05h10.51a17,17,0,0,0,2.13-.11v1.79c-.36,0-.5-.08-.68-.08l-.49,0H164.36a12.23,12.23,0,0,0-1.78.11V31.94a11.94,11.94,0,0,0,2.13.11h11V22h-7.38a11.92,11.92,0,0,0-1.77.12V20.3a10.79,10.79,0,0,0,2.12.12h7V11.87h-7.1a33.58,33.58,0,0,1-4.82,7.85L163,21l-1.18-.86.78-1.14a53.34,53.34,0,0,0,4.3-15.77l0-1.72,4.94,1.06-.57,1.75a38.58,38.58,0,0,1-1.95,6Z"/><path class="cls-1" d="M198.79,11a46.07,46.07,0,0,1,5.29,2.23l1.06.42-2.48,4.18-.61-1a49.76,49.76,0,0,0-4.11-4.18l-.82-.55.89-1.52Zm8.48,8.55-.32.74A120.11,120.11,0,0,1,202,33.65l-.46,1.1-4-2.89.85-.74a72,72,0,0,0,7.27-11.52l.25-.78Zm-7-17.92a50,50,0,0,1,5,2.5l1,.47-2.56,3.9-.6-.94A48.4,48.4,0,0,0,199.5,3.2l-.78-.54.92-1.45Zm24,19.33a17.28,17.28,0,0,0,2.66-.12,16.84,16.84,0,0,0-.18,2.93v7.41a17.05,17.05,0,0,0,.18,2.93,18,18,0,0,0-2.1-.11h-14a20.77,20.77,0,0,0-2.2.11,16.49,16.49,0,0,0,.18-2.93V23.27a14.31,14.31,0,0,0-.18-2.42,21.38,21.38,0,0,0,2.66.12h4.37V13.82h-7.46a12.11,12.11,0,0,0-1.77.12V12.1a13.65,13.65,0,0,0,2.13.16h7.1V6.09c-1.81.16-3.76.27-6.18.35l-1.52.2L207.55,5l1.57-.16A58.65,58.65,0,0,0,223.7.78l1.21-.66,2.41,4.14-1.38.27a51.51,51.51,0,0,1-6.28,1.13v6.6H227a13.56,13.56,0,0,0,2.13-.16v1.84c-.35,0-.49-.08-.67-.08l-.5,0h-8.3V21Zm-11.57,1.56v9.91h10.18V22.53Z"/><path class="cls-1" d="M261,3.28a17.22,17.22,0,0,0,2.66-.12,19.91,19.91,0,0,0-.17,3.13V32.17c0,1.95-.61,2.77-2,2.77a29.31,29.31,0,0,1-6.42-1.44l-1.78-.31-.14-1.88a24.16,24.16,0,0,0,4.94.59c.95,0,1.24-.28,1.24-1.29v-8L256.68,26l-.46-1.48L255.43,23l-.46-.86-.39-.74a25.15,25.15,0,0,1-5.64,8l-.75,1L247,29.32l.81-.78a33.26,33.26,0,0,0,4.69-11c-1.1-2-1.46-2.65-2.45-4.33l-.68-.82,1.07-.94.64.94c.85.9,1,1,2.06,2.18A53,53,0,0,0,253.87,9l0-1.95L258,8.12,257.6,10a72.8,72.8,0,0,1-1.67,7.66,2.55,2.55,0,0,1,.32.39c.67.74,1.24,1.44,2.84,3.39l.25.24V4.84H240V28.66l.5-.59a36.38,36.38,0,0,0,3.47-10.23c-.39-.74-2-3.47-2.83-4.8l-.61-.74,1.14-1.06.46.75c1.1,1.21,1.56,1.67,2.16,2.38l.22.23c.25-1.79.39-3.71.49-5.58l-.07-1.91,4.08,1-.31,1.76a59.46,59.46,0,0,1-1.42,8c.81,1,1.27,1.6,2.34,3.05l1,1-3,3.28L247,23.74c-.25-.51-.39-.86-.49-1a5.23,5.23,0,0,0-.29-.58l-.21-.47a27,27,0,0,1-4.54,7.18l-.71.94-.82-.7v3.67a18.27,18.27,0,0,0,.18,2.34h-4.51l0-.39a13.05,13.05,0,0,0,.15-2V6.29a15.7,15.7,0,0,0-.18-3.13,21.38,21.38,0,0,0,2.66.12Z"/><path class="cls-1" d="M87.47,58.23a13.39,13.39,0,0,0,1.17-2.42l3.82-10a11.34,11.34,0,0,0,.5-1.72h2.85a8.63,8.63,0,0,0,.47,1.66l3.8,9.75a16.55,16.55,0,0,0,1.22,2.69h-4a5.87,5.87,0,0,0-.42-1.74l-.64-1.78H92.29l-.63,1.88a5.31,5.31,0,0,0-.29,1.64ZM93,52.15h2.46l-1.25-3.94Z"/><path class="cls-1" d="M102.25,44.13h4.21a12.69,12.69,0,0,0-.42,3.39v4.57a5.23,5.23,0,0,0,.55,2.81,1.67,1.67,0,0,0,1.42.8,1.72,1.72,0,0,0,1.28-.59,4.29,4.29,0,0,0,.58-2.75V46.73a7.27,7.27,0,0,0-.42-2.6h4.21a6.59,6.59,0,0,0-.42,2.53v8.55a9.88,9.88,0,0,0,.42,3h-3.43v-1.1A4.64,4.64,0,0,1,107,58.45a4,4,0,0,1-3.19-1.32,6.45,6.45,0,0,1-1.13-4.22V47.39A13.54,13.54,0,0,0,102.25,44.13Z"/><path class="cls-1" d="M116.39,44.13h4.21a6.66,6.66,0,0,0-.41,2.45v9.18a15.07,15.07,0,0,0,4.63-1.21l-1.32,3.68h-7.11a9.09,9.09,0,0,0,.42-2.47V46.91A9.67,9.67,0,0,0,116.39,44.13Z"/><path class="cls-1" d="M126.29,58.23a11.09,11.09,0,0,0,.41-2.81v-8a13.86,13.86,0,0,0-.41-3.26h4.21a9.64,9.64,0,0,0-.42,3v8.05a9.19,9.19,0,0,0,.42,3Z"/><path class="cls-1" d="M131.66,44.13h4.59a6.45,6.45,0,0,0-.06.75,3.35,3.35,0,0,0,.1.79l2.12,7.55,2.42-7.58a3.24,3.24,0,0,0,.18-.94,4.72,4.72,0,0,0,0-.57h4.16a9.37,9.37,0,0,0-1.17,2.1l-4.32,12h-2.85l-3.45-10.62A13.35,13.35,0,0,0,131.66,44.13Z"/><path class="cls-1" d="M146.18,58.23a10.7,10.7,0,0,0,.42-2.81v-8a13.38,13.38,0,0,0-.42-3.26h4.21a9.64,9.64,0,0,0-.42,3v8.05a9.19,9.19,0,0,0,.42,3Z"/><path class="cls-1" d="M151.82,44.13h4.64c.51,1,1,1.93,1.58,2.81l3.38,5.4V48.16a17,17,0,0,0-.42-4h4a15.21,15.21,0,0,0-.42,3.62v6.86a19.42,19.42,0,0,0,.42,3.62h-3.8A11.94,11.94,0,0,0,160.08,56l-3.31-5.23v3.87a14.91,14.91,0,0,0,.42,3.62h-4a11.23,11.23,0,0,0,.42-2.95V46.55Z"/><path class="cls-1" d="M174.73,50.66h4.21a8,8,0,0,0-.42,2.8V56a2.77,2.77,0,0,0,.42,1.61,14.19,14.19,0,0,1-4.72.83,6.83,6.83,0,0,1-5.13-1.94,7,7,0,0,1-1.89-5.1,7.63,7.63,0,0,1,2-5.28,6.85,6.85,0,0,1,5.38-2.21,10,10,0,0,1,3.35.57v3.68a5.36,5.36,0,0,0-3.56-1.43A3.11,3.11,0,0,0,171.81,48a5,5,0,0,0-1,3.22,5.85,5.85,0,0,0,.83,3.08,2.7,2.7,0,0,0,2.44,1.35,3.69,3.69,0,0,0,1-.17V53.82A12,12,0,0,0,174.73,50.66Z"/><path class="cls-1" d="M181.21,56.43a2.18,2.18,0,0,1,.5-1.39,1.7,1.7,0,0,1,2.59,0,2,2,0,0,1,.53,1.41,2.12,2.12,0,0,1-.51,1.4,1.61,1.61,0,0,1-1.3.61,1.65,1.65,0,0,1-1.28-.59A2,2,0,0,1,181.21,56.43Z"/><path class="cls-1" d="M197.51,44.42v3.66a5.47,5.47,0,0,0-3.42-1.34,3,3,0,0,0-2.48,1.19,4.92,4.92,0,0,0-.93,3.15,5.88,5.88,0,0,0,.86,3.19,2.88,2.88,0,0,0,2.59,1.35,5.23,5.23,0,0,0,3.75-1.87l-.11,3.72a10.21,10.21,0,0,1-4.14,1,6.19,6.19,0,0,1-4.77-2A7.29,7.29,0,0,1,187,51.35a7.59,7.59,0,0,1,2-5.25,6.52,6.52,0,0,1,5.13-2.18A12.32,12.32,0,0,1,197.51,44.42Z"/><path class="cls-1" d="M199.47,51.29a7.28,7.28,0,0,1,2-5.37,6.76,6.76,0,0,1,5-2,6.54,6.54,0,0,1,4.83,2,7.16,7.16,0,0,1,1.94,5.23,7.6,7.6,0,0,1-1.87,5.2,6.27,6.27,0,0,1-5,2.13,6.57,6.57,0,0,1-5-2.06A7.19,7.19,0,0,1,199.47,51.29Zm3.64-.56a4.9,4.9,0,0,0,1.3,3.53,4.38,4.38,0,0,0,3.29,1.36h.54a4.21,4.21,0,0,0,1-1.82,7.18,7.18,0,0,0,.32-2,5.55,5.55,0,0,0-1.15-3.52,3.78,3.78,0,0,0-3.11-1.48,5.44,5.44,0,0,0-1,.12A6.46,6.46,0,0,0,203.11,50.73Z"/><path class="cls-1" d="M214.31,44.13h5a2.17,2.17,0,0,0,.28,1.18l3.21,4.4,3.43-4.57a1.69,1.69,0,0,0,.29-.57,1.72,1.72,0,0,0,.06-.44h3.79a9.44,9.44,0,0,0-1,4.17v5.63a14.47,14.47,0,0,0,.42,4.3h-4.21a14.38,14.38,0,0,0,.42-4.3V49.75l-3.31,4.88-3.33-4.88v4.18a17.49,17.49,0,0,0,.42,4.3h-4.21a16.31,16.31,0,0,0,.42-4.3v-7.5Z"/><path class="cls-1" d="M232.47,56.43A2.18,2.18,0,0,1,233,55a1.63,1.63,0,0,1,1.31-.61,1.67,1.67,0,0,1,1.28.59,2.08,2.08,0,0,1,.53,1.41,2.12,2.12,0,0,1-.51,1.4,1.61,1.61,0,0,1-1.3.61,1.69,1.69,0,0,1-1.29-.59A2,2,0,0,1,232.47,56.43Z"/><path class="cls-1" d="M237.25,58.23a13.39,13.39,0,0,0,1.17-2.42l3.82-10a11.34,11.34,0,0,0,.5-1.72h2.85a8.63,8.63,0,0,0,.47,1.66l3.8,9.75a16.55,16.55,0,0,0,1.22,2.69h-4a5.87,5.87,0,0,0-.42-1.74L246,54.71h-4l-.63,1.88a5.31,5.31,0,0,0-.29,1.64Zm5.54-6.08h2.46L244,48.21Z"/><path class="cls-1" d="M252,44.13h4.21a12.69,12.69,0,0,0-.42,3.39v4.57a5.23,5.23,0,0,0,.55,2.81,1.68,1.68,0,0,0,1.42.8,1.72,1.72,0,0,0,1.28-.59,4.29,4.29,0,0,0,.58-2.75V46.73a7.27,7.27,0,0,0-.42-2.6h4.21a6.59,6.59,0,0,0-.42,2.53v8.55a9.88,9.88,0,0,0,.42,3H260v-1.1a4.64,4.64,0,0,1-3.25,1.32,4,4,0,0,1-3.19-1.32,6.46,6.46,0,0,1-1.12-4.22V47.39A13.08,13.08,0,0,0,252,44.13Z"/><path class="cls-1" d="M44.15,59.65Q39,56.22,36.48,47a77.69,77.69,0,0,1-2.17-12.31q-.73-7-.79-14.44t.55-14.72c.15-1.78.34-3.48.54-5.14H27.48l.05,0q-1.25,5.58-1.08,16a192.13,192.13,0,0,0,2.2,24.43q.53,3.48,1.43,7.85t2.33,9.69c.17.63.35,1.27.52,1.92H45.38A12.62,12.62,0,0,1,44.15,59.65Z"/><path class="cls-1" d="M47.49.42c-.57,2.19-1.06,4.45-1.47,6.8a105,105,0,0,0-1.45,13.56A97.69,97.69,0,0,0,44.91,34,70.58,70.58,0,0,0,47,45.71q1.78,6.59,4.37,9c1.72,1.64,4,2.07,6.94,1.28a12.51,12.51,0,0,0,7.81-6.24,42,42,0,0,0,4.28-12.52,63,63,0,0,0,1.12-10.62,97.88,97.88,0,0,0-.4-11.44Q70.56,9.43,69.5,3.7c-.18-1-.36-1.94-.56-2.89A9.51,9.51,0,0,0,66.25.42Z"/><path class="cls-1" d="M16.5,13.48c-.09-1.46-.21-3-.36-4.58a16.63,16.63,0,0,0-3.56,3.95,45,45,0,0,0-3.53,6.36q-1.71,3.67-3.29,8.15T2.92,36.7A140.87,140.87,0,0,1,17.56,32q-.35-3.72-.56-7.44t-.35-7.58C16.64,16.09,16.6,14.94,16.5,13.48Z"/><path class="cls-1" d="M75.71,27.5a75.2,75.2,0,0,1-2,12.42,40.25,40.25,0,0,1-6.17,13.85,19.13,19.13,0,0,1-8.68,6.59h7.44a9.49,9.49,0,0,0,9.47-9.46V27.35A.76.76,0,0,0,75.71,27.5Z"/><path class="cls-1" d="M20.2,50.48q-1.08-5.41-1.76-11.29a4.63,4.63,0,0,0-3.12-.11l-4,1.09L6.58,41.45,1.65,42.79C1.08,45.63.59,48.42.17,51.18c0,.27-.07.53-.1.79a9.48,9.48,0,0,0,9.39,8.39H22.52Q21.23,55.53,20.2,50.48Z"/><path class="cls-1" d="M.51,27.07Q2.61,21.15,5,16a76.5,76.5,0,0,1,5-9.25A43,43,0,0,1,14.81.42H9.46A9.49,9.49,0,0,0,0,9.88V28.57Z"/></g></g></svg>